{
	"bufferViews":[{
		"buffer":0,
		"byteOffset":0,
		"byteLength":62652,
		"target":34963
	},
	{
		"buffer":0,
		"byteOffset":62652,
		"byteLength":219680,
		"target":34962,
		"byteStride":32
	},
	{
		"buffer":1,
		"byteOffset":0,
		"byteLength":4584,
		"target":34963
	},
	{
		"buffer":1,
		"byteOffset":4584,
		"byteLength":15744,
		"target":34962,
		"byteStride":32
	},
	{
		"buffer":2,
		"byteOffset":0,
		"byteLength":4584,
		"target":34963
	},
	{
		"buffer":2,
		"byteOffset":4584,
		"byteLength":14656,
		"target":34962,
		"byteStride":32
	},
	{
		"buffer":3,
		"byteOffset":0,
		"byteLength":12936,
		"target":34963
	},
	{
		"buffer":3,
		"byteOffset":12936,
		"byteLength":42304,
		"target":34962,
		"byteStride":32
	},
	{
		"buffer":4,
		"byteOffset":0,
		"byteLength":12936,
		"target":34963
	},
	{
		"buffer":4,
		"byteOffset":12936,
		"byteLength":42368,
		"target":34962,
		"byteStride":32
	},
	{
		"buffer":5,
		"byteOffset":0,
		"byteLength":2544,
		"target":34963
	},
	{
		"buffer":5,
		"byteOffset":2544,
		"byteLength":14336,
		"target":34962,
		"byteStride":32
	},
	{
		"buffer":6,
		"byteOffset":0,
		"byteLength":888,
		"target":34963
	},
	{
		"buffer":6,
		"byteOffset":888,
		"byteLength":5440,
		"target":34962,
		"byteStride":32
	},
	{
		"buffer":7,
		"byteOffset":0,
		"byteLength":168,
		"target":34963
	},
	{
		"buffer":7,
		"byteOffset":168,
		"byteLength":1536,
		"target":34962,
		"byteStride":32
	},
	{
		"buffer":8,
		"byteOffset":0,
		"byteLength":2808,
		"target":34963
	},
	{
		"buffer":8,
		"byteOffset":2808,
		"byteLength":15424,
		"target":34962,
		"byteStride":32
	},
	{
		"buffer":9,
		"byteOffset":0,
		"byteLength":264,
		"target":34963
	},
	{
		"buffer":9,
		"byteOffset":264,
		"byteLength":2304,
		"target":34962,
		"byteStride":32
	},
	{
		"buffer":10,
		"byteOffset":0,
		"byteLength":504,
		"target":34963
	},
	{
		"buffer":10,
		"byteOffset":504,
		"byteLength":3328,
		"target":34962,
		"byteStride":32
	},
	{
		"buffer":11,
		"byteOffset":0,
		"byteLength":264,
		"target":34963
	},
	{
		"buffer":11,
		"byteOffset":264,
		"byteLength":2304,
		"target":34962,
		"byteStride":32
	}],
	"asset":{
		"version":"2.0",
		"generator":"Maxon Cinema 4D 2023.2.1 (#200000219)"
	},
	"scenes":[{
		"nodes":[0]
	}],
	"nodes":[{
		"name":"Borne",
		"translation":[0.0014461922692134977,
		0.1134190782904625,
		0.008357783779501915],
		"rotation":[0.0,
		0.0,
		0.0,
		-1.0],
		"scale":[1.0,
		1.0,
		1.0],
		"children":[1,
		2,
		3,
		4,
		5,
		6]
	},
	{
		"name":"Cube.2",
		"translation":[0.036751531064510348,
		0.10183816403150559,
		0.06671556830406189],
		"rotation":[0.0,
		0.0,
		0.0,
		-1.0],
		"scale":[1.0,
		1.0,
		1.0],
		"children":[7]
	},
	{
		"name":"Cube.1",
		"translation":[-0.0809667631983757,
		0.10183816403150559,
		0.06671556830406189],
		"rotation":[0.0,
		0.0,
		0.0,
		-1.0],
		"scale":[1.0,
		1.0,
		1.0],
		"children":[8]
	},
	{
		"name":"Sweep.1",
		"translation":[-0.0014461922692134977,
		-0.1134190782904625,
		-0.008357783779501915],
		"rotation":[0.0,
		0.0,
		0.0,
		-1.0],
		"scale":[1.0,
		1.0,
		1.0],
		"children":[9]
	},
	{
		"name":"Sweep",
		"translation":[-0.0014461922692134977,
		-0.1134190782904625,
		-0.008357783779501915],
		"rotation":[0.0,
		0.0,
		0.0,
		-1.0],
		"scale":[1.0,
		1.0,
		1.0],
		"children":[10]
	},
	{
		"name":"Artwork.svg",
		"translation":[0.04855380952358246,
		0.08658091723918915,
		-0.10835778713226319],
		"rotation":[0.4999563694000244,
		0.5000436305999756,
		0.5000436305999756,
		0.4999563694000244],
		"scale":[1.0,
		1.0,
		1.0],
		"children":[11]
	},
	{
		"name":"Cube_remesh",
		"rotation":[0.0,
		0.0,
		0.0,
		-1.0],
		"mesh":0,
		"translation":[-0.0014461922692134977,
		-0.06341908127069473,
		-0.008357783779501915],
		"scale":[1.0,
		1.0,
		1.0]
	},
	{
		"name":"Cube.2",
		"mesh":1
	},
	{
		"name":"Cube.1",
		"mesh":2
	},
	{
		"name":"Sweep.1",
		"mesh":3
	},
	{
		"name":"Sweep",
		"mesh":4
	},
	{
		"name":"Null",
		"translation":[0.0,
		0.0,
		0.0],
		"rotation":[0.0,
		0.0,
		0.0,
		-1.0],
		"scale":[0.6499999761581421,
		0.6499999761581421,
		0.6499999761581421],
		"children":[12]
	},
	{
		"name":"Null",
		"translation":[-0.2681146264076233,
		-0.05128135159611702,
		0.0],
		"rotation":[0.0,
		0.0,
		0.0,
		-1.0],
		"scale":[1.0,
		1.0,
		1.0],
		"children":[13,
		14,
		15,
		16,
		17,
		18,
		19]
	},
	{
		"name":"Fill",
		"mesh":5
	},
	{
		"name":"Fill",
		"mesh":6
	},
	{
		"name":"Fill",
		"mesh":7
	},
	{
		"name":"Fill",
		"mesh":8
	},
	{
		"name":"Fill",
		"mesh":9
	},
	{
		"name":"Fill",
		"mesh":10
	},
	{
		"name":"Fill",
		"mesh":11
	}],
	"meshes":[{
		"name":"Cube_remesh",
		"primitives":[{
			"attributes":{
				"POSITION":1,
				"NORMAL":2,
				"TEXCOORD_0":3
			},
			"indices":0,
			"material":0
		}]
	},
	{
		"name":"Cube.2",
		"primitives":[{
			"attributes":{
				"POSITION":5,
				"NORMAL":6,
				"TEXCOORD_0":7
			},
			"indices":4,
			"material":1
		}]
	},
	{
		"name":"Cube.1",
		"primitives":[{
			"attributes":{
				"POSITION":9,
				"NORMAL":10,
				"TEXCOORD_0":11
			},
			"indices":8,
			"material":1
		}]
	},
	{
		"name":"Sweep.1",
		"primitives":[{
			"attributes":{
				"POSITION":13,
				"NORMAL":14,
				"TEXCOORD_0":15
			},
			"indices":12,
			"material":1
		}]
	},
	{
		"name":"Sweep",
		"primitives":[{
			"attributes":{
				"POSITION":17,
				"NORMAL":18,
				"TEXCOORD_0":19
			},
			"indices":16,
			"material":1
		}]
	},
	{
		"name":"Fill",
		"primitives":[{
			"attributes":{
				"POSITION":21,
				"NORMAL":22,
				"TEXCOORD_0":23
			},
			"indices":20,
			"material":2
		}]
	},
	{
		"name":"Fill",
		"primitives":[{
			"attributes":{
				"POSITION":25,
				"NORMAL":26,
				"TEXCOORD_0":27
			},
			"indices":24,
			"material":2
		}]
	},
	{
		"name":"Fill",
		"primitives":[{
			"attributes":{
				"POSITION":29,
				"NORMAL":30,
				"TEXCOORD_0":31
			},
			"indices":28,
			"material":2
		}]
	},
	{
		"name":"Fill",
		"primitives":[{
			"attributes":{
				"POSITION":33,
				"NORMAL":34,
				"TEXCOORD_0":35
			},
			"indices":32,
			"material":2
		}]
	},
	{
		"name":"Fill",
		"primitives":[{
			"attributes":{
				"POSITION":37,
				"NORMAL":38,
				"TEXCOORD_0":39
			},
			"indices":36,
			"material":2
		}]
	},
	{
		"name":"Fill",
		"primitives":[{
			"attributes":{
				"POSITION":41,
				"NORMAL":42,
				"TEXCOORD_0":43
			},
			"indices":40,
			"material":2
		}]
	},
	{
		"name":"Fill",
		"primitives":[{
			"attributes":{
				"POSITION":45,
				"NORMAL":46,
				"TEXCOORD_0":47
			},
			"indices":44,
			"material":2
		}]
	}],
	"accessors":[{
		"bufferView":0,
		"type":"SCALAR",
		"componentType":5123,
		"count":31326,
		"byteOffset":0,
		"min":[0],
		"max":[6864]
	},
	{
		"bufferView":1,
		"type":"VEC3",
		"componentType":5126,
		"count":6865,
		"byteOffset":0,
		"min":[-0.10000000149011612,
		-0.05000000074505806,
		-0.15000000596046449],
		"max":[0.05000000074505806,
		0.42405030131340029,
		0.10000000149011612]
	},
	{
		"bufferView":1,
		"type":"VEC3",
		"componentType":5126,
		"count":6865,
		"byteOffset":12,
		"min":[-1.0,
		-1.0,
		-1.0],
		"max":[1.0,
		1.0,
		0.9952605366706848]
	},
	{
		"bufferView":1,
		"type":"VEC2",
		"componentType":5126,
		"count":6865,
		"byteOffset":24,
		"min":[0.008082982152700425,
		0.008082982152700425],
		"max":[0.9792776107788086,
		0.9919170141220093]
	},
	{
		"bufferView":2,
		"type":"SCALAR",
		"componentType":5123,
		"count":2292,
		"byteOffset":0,
		"min":[0],
		"max":[491]
	},
	{
		"bufferView":3,
		"type":"VEC3",
		"componentType":5126,
		"count":492,
		"byteOffset":0,
		"min":[-0.009999999776482582,
		-0.01359653938561678,
		-0.009999999776482582],
		"max":[-0.0009594062576070428,
		0.009999999776482582,
		0.027400506660342218]
	},
	{
		"bufferView":3,
		"type":"VEC3",
		"componentType":5126,
		"count":492,
		"byteOffset":12,
		"min":[-1.0,
		-0.9969472289085388,
		-0.9981013536453247],
		"max":[1.0,
		0.9954189658164978,
		0.9981013536453247]
	},
	{
		"bufferView":3,
		"type":"VEC2",
		"componentType":5126,
		"count":492,
		"byteOffset":24,
		"min":[-0.2289586365222931,
		-0.09999999403953552],
		"max":[1.2289586067199708,
		1.1136291027069092]
	},
	{
		"bufferView":4,
		"type":"SCALAR",
		"componentType":5123,
		"count":2292,
		"byteOffset":0,
		"min":[0],
		"max":[457]
	},
	{
		"bufferView":5,
		"type":"VEC3",
		"componentType":5126,
		"count":458,
		"byteOffset":0,
		"min":[-0.009999999776482582,
		-0.01359653938561678,
		-0.009999999776482582],
		"max":[-0.0009594062576070428,
		0.009999999776482582,
		0.027400506660342218]
	},
	{
		"bufferView":5,
		"type":"VEC3",
		"componentType":5126,
		"count":458,
		"byteOffset":12,
		"min":[-1.0,
		-0.9969472289085388,
		-0.9981013536453247],
		"max":[1.0,
		0.9954189658164978,
		0.9981013536453247]
	},
	{
		"bufferView":5,
		"type":"VEC2",
		"componentType":5126,
		"count":458,
		"byteOffset":24,
		"min":[-0.2289586365222931,
		-0.09999999403953552],
		"max":[1.2289586067199708,
		1.1136291027069092]
	},
	{
		"bufferView":6,
		"type":"SCALAR",
		"componentType":5123,
		"count":6468,
		"byteOffset":0,
		"min":[0],
		"max":[1321]
	},
	{
		"bufferView":7,
		"type":"VEC3",
		"componentType":5126,
		"count":1322,
		"byteOffset":0,
		"min":[-0.08761599659919739,
		0.06219978630542755,
		0.07966316491365433],
		"max":[-0.06439556181430817,
		0.42239564657211306,
		0.11759128421545029]
	},
	{
		"bufferView":7,
		"type":"VEC3",
		"componentType":5126,
		"count":1322,
		"byteOffset":12,
		"min":[-0.9991959929466248,
		-0.9998504519462586,
		-0.9985712170600891],
		"max":[0.999196469783783,
		0.9998508095741272,
		0.9985712170600891]
	},
	{
		"bufferView":7,
		"type":"VEC2",
		"componentType":5126,
		"count":1322,
		"byteOffset":24,
		"min":[0.00541601562872529,
		0.005416015163064003],
		"max":[0.41880175471305849,
		0.9945839643478394]
	},
	{
		"bufferView":8,
		"type":"SCALAR",
		"componentType":5123,
		"count":6468,
		"byteOffset":0,
		"min":[0],
		"max":[1323]
	},
	{
		"bufferView":9,
		"type":"VEC3",
		"componentType":5126,
		"count":1324,
		"byteOffset":0,
		"min":[0.018625594675540925,
		0.062401317059993747,
		0.07965634018182755],
		"max":[0.035667818039655688,
		0.4223751723766327,
		0.11649201065301895]
	},
	{
		"bufferView":9,
		"type":"VEC3",
		"componentType":5126,
		"count":1324,
		"byteOffset":12,
		"min":[-0.9999892711639404,
		-0.993536651134491,
		-0.9999546408653259],
		"max":[0.9999892711639404,
		0.9935199022293091,
		0.9999545216560364]
	},
	{
		"bufferView":9,
		"type":"VEC2",
		"componentType":5126,
		"count":1324,
		"byteOffset":24,
		"min":[0.005097402725368738,
		0.005097402259707451],
		"max":[0.3834613859653473,
		0.9949026107788086]
	},
	{
		"bufferView":10,
		"type":"SCALAR",
		"componentType":5123,
		"count":1272,
		"byteOffset":0,
		"min":[0],
		"max":[447]
	},
	{
		"bufferView":11,
		"type":"VEC3",
		"componentType":5126,
		"count":448,
		"byteOffset":0,
		"min":[0.37080118060112,
		0.0019409832311794162,
		0.00070555554702878],
		"max":[0.44497624039649966,
		0.1006157174706459,
		0.00105833332054317]
	},
	{
		"bufferView":11,
		"type":"VEC3",
		"componentType":5126,
		"count":448,
		"byteOffset":12,
		"min":[-1.0,
		-1.0,
		-1.0],
		"max":[0.9999998807907105,
		1.0,
		1.0]
	},
	{
		"bufferView":11,
		"type":"VEC2",
		"componentType":5126,
		"count":448,
		"byteOffset":24,
		"min":[0.0,
		0.0],
		"max":[0.9999890923500061,
		1.0]
	},
	{
		"bufferView":12,
		"type":"SCALAR",
		"componentType":5123,
		"count":444,
		"byteOffset":0,
		"min":[0],
		"max":[169]
	},
	{
		"bufferView":13,
		"type":"VEC3",
		"componentType":5126,
		"count":170,
		"byteOffset":0,
		"min":[0.4507370889186859,
		0.0019409832311794162,
		0.000529166660271585],
		"max":[0.5362292528152466,
		0.10160046815872193,
		0.000881944433785975]
	},
	{
		"bufferView":13,
		"type":"VEC3",
		"componentType":5126,
		"count":170,
		"byteOffset":12,
		"min":[-0.9714624285697937,
		-1.0,
		-1.0],
		"max":[0.9686955809593201,
		1.0,
		1.0]
	},
	{
		"bufferView":13,
		"type":"VEC2",
		"componentType":5126,
		"count":170,
		"byteOffset":24,
		"min":[0.0,
		0.0],
		"max":[1.0,
		1.0]
	},
	{
		"bufferView":14,
		"type":"SCALAR",
		"componentType":5123,
		"count":84,
		"byteOffset":0,
		"min":[0],
		"max":[47]
	},
	{
		"bufferView":15,
		"type":"VEC3",
		"componentType":5126,
		"count":48,
		"byteOffset":0,
		"min":[0.2972247898578644,
		0.0019469804828986526,
		0.00035277777351439],
		"max":[0.3624086081981659,
		0.1006157174706459,
		0.00070555554702878]
	},
	{
		"bufferView":15,
		"type":"VEC3",
		"componentType":5126,
		"count":48,
		"byteOffset":12,
		"min":[-1.0,
		-1.0,
		-1.0],
		"max":[1.0,
		1.0,
		1.0]
	},
	{
		"bufferView":15,
		"type":"VEC2",
		"componentType":5126,
		"count":48,
		"byteOffset":24,
		"min":[0.0,
		0.0],
		"max":[1.0,
		1.0]
	},
	{
		"bufferView":16,
		"type":"SCALAR",
		"componentType":5123,
		"count":1404,
		"byteOffset":0,
		"min":[0],
		"max":[481]
	},
	{
		"bufferView":17,
		"type":"VEC3",
		"componentType":5126,
		"count":482,
		"byteOffset":0,
		"min":[0.1948331594467163,
		0.0002571749791968614,
		0.000176388886757195],
		"max":[0.29249438643455508,
		0.10230552405118942,
		0.000529166660271585]
	},
	{
		"bufferView":17,
		"type":"VEC3",
		"componentType":5126,
		"count":482,
		"byteOffset":12,
		"min":[-0.9987614154815674,
		-0.9999203085899353,
		-1.0],
		"max":[0.9998944401741028,
		0.999917209148407,
		1.0]
	},
	{
		"bufferView":17,
		"type":"VEC2",
		"componentType":5126,
		"count":482,
		"byteOffset":24,
		"min":[0.0,
		0.0],
		"max":[1.0,
		1.0]
	},
	{
		"bufferView":18,
		"type":"SCALAR",
		"componentType":5123,
		"count":132,
		"byteOffset":0,
		"min":[0],
		"max":[71]
	},
	{
		"bufferView":19,
		"type":"VEC3",
		"componentType":5126,
		"count":72,
		"byteOffset":0,
		"min":[0.13105376064777375,
		0.0019469804828986526,
		0.0],
		"max":[0.1877550333738327,
		0.1006157174706459,
		0.00035277777351439]
	},
	{
		"bufferView":19,
		"type":"VEC3",
		"componentType":5126,
		"count":72,
		"byteOffset":12,
		"min":[-1.0,
		-1.0,
		-1.0],
		"max":[1.0,
		1.0,
		1.0]
	},
	{
		"bufferView":19,
		"type":"VEC2",
		"componentType":5126,
		"count":72,
		"byteOffset":24,
		"min":[0.0,
		0.0],
		"max":[1.0,
		1.0]
	},
	{
		"bufferView":20,
		"type":"SCALAR",
		"componentType":5123,
		"count":252,
		"byteOffset":0,
		"min":[0],
		"max":[103]
	},
	{
		"bufferView":21,
		"type":"VEC3",
		"componentType":5126,
		"count":104,
		"byteOffset":0,
		"min":[0.0677347406744957,
		0.0019469804828986526,
		-0.000176388886757195],
		"max":[0.12148220092058182,
		0.1006157174706459,
		0.000176388886757195]
	},
	{
		"bufferView":21,
		"type":"VEC3",
		"componentType":5126,
		"count":104,
		"byteOffset":12,
		"min":[-1.0,
		-1.0,
		-1.0],
		"max":[1.0,
		1.0,
		1.0]
	},
	{
		"bufferView":21,
		"type":"VEC2",
		"componentType":5126,
		"count":104,
		"byteOffset":24,
		"min":[0.0,
		0.0],
		"max":[0.9999810457229614,
		1.0]
	},
	{
		"bufferView":22,
		"type":"SCALAR",
		"componentType":5123,
		"count":132,
		"byteOffset":0,
		"min":[0],
		"max":[71]
	},
	{
		"bufferView":23,
		"type":"VEC3",
		"componentType":5126,
		"count":72,
		"byteOffset":0,
		"min":[0.0,
		0.0019469804828986526,
		-0.00035277777351439],
		"max":[0.05670091137290001,
		0.1006157174706459,
		0.0]
	},
	{
		"bufferView":23,
		"type":"VEC3",
		"componentType":5126,
		"count":72,
		"byteOffset":12,
		"min":[-1.0,
		-1.0,
		-1.0],
		"max":[1.0,
		1.0,
		1.0]
	},
	{
		"bufferView":23,
		"type":"VEC2",
		"componentType":5126,
		"count":72,
		"byteOffset":24,
		"min":[0.0,
		0.0],
		"max":[1.0,
		1.0]
	}],
	"buffers":[{
		"uri":"data:application/octet-stream;base64,",
		"byteLength":282332
	},
	{
		"uri":"data:application/octet-stream;base64,",
		"byteLength":20328
	},
	{
		"uri":"data:application/octet-stream;base64,",
		"byteLength":19240
	},
	{
		"uri":"data:application/octet-stream;base64,",
		"byteLength":55240
	},
	{
		"uri":"data:application/octet-stream;base64,",
		"byteLength":55304
	},
	{
		"uri":"data:application/octet-stream;base64,",
		"byteLength":16880
	},
	{
		"uri":"data:application/octet-stream;base64,",
		"byteLength":6328
	},
	{
		"uri":"data:application/octet-stream;base64,",
		"byteLength":1704
	},
	{
		"uri":"data:application/octet-stream;base64,",
		"byteLength":18232
	},
	{
		"uri":"data:application/octet-stream;base64,",
		"byteLength":2568
	},
	{
		"uri":"data:application/octet-stream;base64,",
		"byteLength":3832
	},
	{
		"uri":"data:application/octet-stream;base64,",
		"byteLength":2568
	}],
	"materials":[{
		"pbrMetallicRoughness":{
			"baseColorFactor":[1.0,
			1.0,
			1.0,
			1.0],
			"metallicFactor":0.0,
			"roughnessFactor":0.5
		},
		"emissiveFactor":[0.0,
		0.5499999999999998,
		1.0],
		"alphaMode":"OPAQUE",
		"doubleSided":false,
		"name":"Mat.2"
	},
	{
		"pbrMetallicRoughness":{
			"baseColorFactor":[0.0,
			0.0,
			0.0,
			1.0],
			"metallicFactor":0.0,
			"roughnessFactor":0.5
		},
		"emissiveFactor":[0.0,
		0.0,
		0.0],
		"alphaMode":"OPAQUE",
		"doubleSided":false,
		"name":"Mat.3"
	},
	{
		"pbrMetallicRoughness":{
			"baseColorFactor":[0.08043165467625897,
			0.86,
			0.652115107913669,
			1.0],
			"metallicFactor":0.0,
			"roughnessFactor":0.5
		},
		"emissiveFactor":[0.0,
		0.0,
		0.0],
		"alphaMode":"OPAQUE",
		"doubleSided":false,
		"name":"Mat.1"
	}]
}